<svg width="36" height="36" viewBox="0 0 36 36" fill="none" xmlns="http://www.w3.org/2000/svg">
<path d="M25.9351 8.56497C25.7963 8.42591 25.6315 8.31559 25.45 8.24032C25.2686 8.16505 25.074 8.1263 24.8776 8.1263C24.6811 8.1263 24.4866 8.16505 24.3052 8.24032C24.1237 8.31559 23.9589 8.42591 23.8201 8.56497L18.0001 14.37L12.1651 8.54997C12.0262 8.4111 11.8614 8.30094 11.6799 8.22578C11.4985 8.15062 11.304 8.11194 11.1076 8.11194C10.9112 8.11194 10.7167 8.15062 10.5353 8.22578C10.3538 8.30094 10.189 8.4111 10.0501 8.54997C9.91122 8.68884 9.80106 8.85371 9.7259 9.03515C9.65074 9.2166 9.61206 9.41107 9.61206 9.60747C9.61206 9.80387 9.65074 9.99834 9.7259 10.1798C9.80106 10.3612 9.91122 10.5261 10.0501 10.665L16.9351 17.55C17.5201 18.135 18.4651 18.135 19.0501 17.55L25.9351 10.665C26.0741 10.5277 26.1844 10.3642 26.2597 10.1839C26.335 10.0037 26.3737 9.81031 26.3737 9.61497C26.3737 9.41963 26.335 9.22624 26.2597 9.046C26.1844 8.86576 26.0741 8.70225 25.9351 8.56497Z" fill="#393939"/>
<path d="M25.935 18.45C25.7962 18.3109 25.6314 18.2006 25.4499 18.1253C25.2685 18.0501 25.0739 18.0113 24.8775 18.0113C24.681 18.0113 24.4865 18.0501 24.305 18.1253C24.1236 18.2006 23.9588 18.3109 23.82 18.45L18 24.255L12.18 18.435C11.8995 18.1545 11.5191 17.9969 11.1225 17.9969C10.7258 17.9969 10.3455 18.1545 10.065 18.435C9.78452 18.7154 9.62695 19.0958 9.62695 19.4925C9.62695 19.8891 9.78452 20.2695 10.065 20.55L16.95 27.435C17.535 28.02 18.48 28.02 19.065 27.435L25.95 20.55C26.2254 20.2689 26.3783 19.8903 26.3755 19.4969C26.3727 19.1034 26.2143 18.7271 25.935 18.45Z" fill="#393939"/>
</svg>
