<svg width="47" height="43" viewBox="0 0 47 43" fill="none" xmlns="http://www.w3.org/2000/svg">
<path fill-rule="evenodd" clip-rule="evenodd" d="M17.1981 0.875C8.02225 0.875 0.583496 8.31375 0.583496 17.4896C0.583496 38.1146 28.0835 42.125 28.0835 42.125V34.1042H29.8022C38.9781 34.1042 46.4168 26.6654 46.4168 17.4896C46.4168 8.31375 38.9781 0.875 29.8022 0.875H17.1981ZM23.5002 20.9271C24.2599 20.9271 24.9885 20.6253 25.5257 20.0881C26.0629 19.5509 26.3647 18.8222 26.3647 18.0625C26.3647 17.3028 26.0629 16.5741 25.5257 16.0369C24.9885 15.4997 24.2599 15.1979 23.5002 15.1979C22.7404 15.1979 22.0118 15.4997 21.4746 16.0369C20.9374 16.5741 20.6356 17.3028 20.6356 18.0625C20.6356 18.8222 20.9374 19.5509 21.4746 20.0881C22.0118 20.6253 22.7404 20.9271 23.5002 20.9271ZM35.5314 18.0625C35.5314 18.8222 35.2296 19.5509 34.6924 20.0881C34.1552 20.6253 33.4266 20.9271 32.6668 20.9271C31.9071 20.9271 31.1785 20.6253 30.6413 20.0881C30.104 19.5509 29.8022 18.8222 29.8022 18.0625C29.8022 17.3028 30.104 16.5741 30.6413 16.0369C31.1785 15.4997 31.9071 15.1979 32.6668 15.1979C33.4266 15.1979 34.1552 15.4997 34.6924 16.0369C35.2296 16.5741 35.5314 17.3028 35.5314 18.0625ZM14.3335 20.9271C15.0932 20.9271 15.8218 20.6253 16.3591 20.0881C16.8963 19.5509 17.1981 18.8222 17.1981 18.0625C17.1981 17.3028 16.8963 16.5741 16.3591 16.0369C15.8218 15.4997 15.0932 15.1979 14.3335 15.1979C13.5738 15.1979 12.8451 15.4997 12.3079 16.0369C11.7707 16.5741 11.4689 17.3028 11.4689 18.0625C11.4689 18.8222 11.7707 19.5509 12.3079 20.0881C12.8451 20.6253 13.5738 20.9271 14.3335 20.9271Z" fill="#393939"/>
</svg>
