<svg width="35" height="47" viewBox="0 0 35 47" fill="none" xmlns="http://www.w3.org/2000/svg">
<path d="M24.948 10.8958C26.3156 10.8958 27.6271 10.3525 28.5941 9.38552C29.561 8.41854 30.1043 7.10702 30.1043 5.7395C30.1043 4.37198 29.561 3.06047 28.5941 2.09348C27.6271 1.1265 26.3156 0.583252 24.948 0.583252C23.5805 0.583252 22.269 1.1265 21.302 2.09348C20.335 3.06047 19.7918 4.37198 19.7918 5.7395C19.7918 7.10702 20.335 8.41854 21.302 9.38552C22.269 10.3525 23.5805 10.8958 24.948 10.8958ZM14.5897 15.8022C13.1609 16.1574 12.1858 16.6914 11.3986 17.3537C10.2184 18.3483 9.26503 19.7828 7.97711 22.0378C7.67549 22.5655 7.1766 22.9518 6.59018 23.1117C6.00376 23.2716 5.37784 23.192 4.85013 22.8903C4.32242 22.5887 3.93614 22.0898 3.77626 21.5034C3.61639 20.917 3.69601 20.2911 3.99763 19.7634C5.27982 17.521 6.57576 15.4229 8.4469 13.8486C10.3994 12.2031 12.7896 11.2727 16.0128 10.9141C17.3603 10.7651 18.843 10.7949 20.2329 11.4148C21.6916 12.0668 22.7572 13.2344 23.4837 14.795C24.4622 16.8953 25.1898 18.1454 25.7719 18.8708C26.0526 19.2179 26.2486 19.3795 26.3597 19.4517C26.4479 19.509 26.4858 19.5136 26.4995 19.5159C26.5992 19.5273 26.9235 19.5159 27.8722 19.0953C28.2859 18.912 28.7373 18.692 29.2896 18.4227L29.4214 18.3586C30.0968 18.0253 30.7784 17.7044 31.4655 17.3961C32.0204 17.1525 32.6491 17.1386 33.2141 17.3573C33.7792 17.5761 34.2346 18.0098 34.4808 18.5634C34.7269 19.1171 34.7438 19.7457 34.5277 20.3118C34.3116 20.8779 33.88 21.3353 33.3275 21.5841C32.6907 21.8698 32.0592 22.1674 31.4335 22.4767L31.2834 22.55C30.7551 22.8078 30.2235 23.0679 29.725 23.2879C28.6938 23.744 27.3761 24.239 25.9472 24.066C24.4393 23.8826 23.2774 23.0313 22.3206 21.8889L19.1891 27.9309L23.5203 33.5661C23.7781 33.9029 23.9374 34.304 23.9821 34.7256L24.9354 43.8877C24.9718 44.1896 24.9476 44.4957 24.8645 44.7881C24.7814 45.0806 24.6409 45.3536 24.4512 45.5912C24.2615 45.8288 24.0265 46.0263 23.7597 46.1722C23.4929 46.318 23.1998 46.4094 22.8974 46.4409C22.595 46.4723 22.2893 46.4433 21.9983 46.3555C21.7072 46.2677 21.4365 46.1228 21.2019 45.9293C20.9674 45.7359 20.7737 45.4977 20.6321 45.2286C20.4905 44.9595 20.4039 44.665 20.3773 44.3621L19.4904 35.8451L16.8596 32.4214L16.8367 32.4638L16.7404 32.2667L11.8798 25.9417C11.6409 25.6308 11.4857 25.2638 11.4291 24.8758C11.3726 24.4878 11.4165 24.0918 11.5567 23.7256L14.5897 15.8022Z" fill="#393939"/>
<path d="M11.12 29.2372L9.43334 33.7747L2.7875 33.2476C2.48535 33.2195 2.18063 33.2518 1.89103 33.3424C1.60143 33.4331 1.33272 33.5803 1.10049 33.7757C0.86826 33.971 0.677136 34.2105 0.538208 34.4803C0.399281 34.7501 0.315317 35.0447 0.29119 35.3472C0.267064 35.6497 0.303254 35.954 0.397662 36.2424C0.492069 36.5308 0.642813 36.7976 0.841146 37.0272C1.03948 37.2569 1.28145 37.4449 1.55302 37.5803C1.82459 37.7157 2.12035 37.7958 2.42313 37.816L10.7969 38.4806C11.2938 38.5202 11.7902 38.3966 12.2105 38.1286C12.6309 37.8606 12.9524 37.4628 13.1264 36.9956L14.4154 33.526L11.12 29.2372Z" fill="#393939"/>
</svg>
