<svg width="50" height="58" viewBox="0 0 50 58" fill="none" xmlns="http://www.w3.org/2000/svg">
<path d="M0 7.08926C0 3.12002 3.1964 -0.240247 7.24993 0.0134944C23.1319 1.00671 37.0604 6.42953 47.971 17.0033C51.0674 20.0011 50.4567 24.8983 47.246 27.3994L46.3746 28.0809L44.9567 26.4824L44.9317 26.457C34.4461 15.528 19.2498 9.11194 3.11068 9.11194H0V7.08926ZM0 12.7332V52.5597C0 57.0256 5.02138 59.5847 8.55349 56.9132L14.2963 52.5706V52.5778C14.2963 53.5392 14.6726 54.4612 15.3423 55.141C16.0121 55.8208 16.9205 56.2027 17.8677 56.2027C18.8149 56.2027 19.7233 55.8208 20.393 55.141C21.0628 54.4612 21.4391 53.5392 21.4391 52.5778V45.3208C21.4427 44.8612 21.6182 44.4202 21.9302 44.0869C22.2421 43.7537 22.6671 43.5532 23.1191 43.526C23.5712 43.4989 24.0165 43.647 24.365 43.9405C24.7135 44.2341 24.9391 44.651 24.9962 45.107V47.1369C24.9962 48.0983 25.3725 49.0203 26.0422 49.7001C26.712 50.3799 27.6204 50.7618 28.5676 50.7618C29.5148 50.7618 30.4232 50.3799 31.093 49.7001C31.7627 49.0203 32.139 48.0983 32.139 47.1369V39.0244C35.0854 36.8314 39.5889 33.3551 43.5317 30.2957L42.3496 28.9581C32.5676 18.7795 18.3213 12.7332 3.10711 12.7332H0ZM15.1713 22.6726C15.1711 23.0284 15.1018 23.3807 14.9674 23.7094C14.833 24.038 14.6362 24.3366 14.3881 24.588C14.14 24.8395 13.8456 25.0389 13.5216 25.1748C13.1977 25.3108 12.8505 25.3806 12.4999 25.3804C12.1493 25.3802 11.8022 25.3098 11.4784 25.1734C11.1546 25.037 10.8604 24.8373 10.6127 24.5855C10.365 24.3337 10.1685 24.0349 10.0346 23.706C9.90064 23.3772 9.83182 23.0248 9.83205 22.669C9.83205 21.9504 10.1133 21.2612 10.614 20.753C11.1146 20.2449 11.7936 19.9594 12.5017 19.9594C13.2097 19.9594 13.8887 20.2449 14.3894 20.753C14.89 21.2612 15.1713 21.9504 15.1713 22.669M25.7962 29.9187C25.7962 30.6374 25.5149 31.3266 25.0143 31.8347C24.5136 32.3429 23.8346 32.6283 23.1266 32.6283C22.4185 32.6283 21.7395 32.3429 21.2389 31.8347C20.7382 31.3266 20.457 30.6374 20.457 29.9187C20.457 29.2001 20.7382 28.5109 21.2389 28.0028C21.7395 27.4946 22.4185 27.2091 23.1266 27.2091C23.8346 27.2091 24.5136 27.4946 25.0143 28.0028C25.5149 28.5109 25.7962 29.2001 25.7962 29.9187ZM15.1999 38.9882C15.1999 39.7107 14.9171 40.4035 14.4138 40.9144C13.9104 41.4253 13.2278 41.7123 12.516 41.7123C11.8041 41.7123 11.1215 41.4253 10.6181 40.9144C10.1148 40.4035 9.83205 39.7107 9.83205 38.9882C9.83205 38.2657 10.1148 37.5728 10.6181 37.062C11.1215 36.5511 11.8041 36.2641 12.516 36.2641C13.2278 36.2641 13.9104 36.5511 14.4138 37.062C14.9171 37.5728 15.1999 38.2657 15.1999 38.9882Z" fill="#393939"/>
</svg>
