<svg width="14" height="14" viewBox="0 0 14 14" fill="none" xmlns="http://www.w3.org/2000/svg">
<path d="M9.72718 13C9.72718 13 9.72718 11.4837 9.72718 11C9.72718 10.5829 9.83671 9.692 9.36355 9.33333C10.3735 9.24993 11.1694 8.9452 11.909 8.33333C12.6486 7.72147 12.9999 6.79167 12.9999 5.33333C12.9999 4.33333 12.8181 3.66667 12.2726 3C12.4809 2.47947 12.5227 1.66667 12.2726 1C11.1363 1 10.1094 1.71642 9.72718 2C9.44515 1.93327 8.75868 1.66667 7.54537 1.66667C6.33206 1.66667 5.64561 1.93327 5.36355 2C4.9814 1.71642 3.95446 1 2.81809 1C2.56809 1.66667 2.60988 2.47947 2.81809 3C2.27264 3.66667 2.09082 4.33333 2.09082 5.33333C2.09082 6.79167 2.4421 7.72147 3.18173 8.33333C3.92136 8.9452 4.71722 9.24993 5.72718 9.33333C5.25405 9.692 5.36355 10.5829 5.36355 11C5.36355 11.4837 5.36355 13 5.36355 13" stroke="white" stroke-width="2" stroke-linecap="round" stroke-linejoin="round"/>
<path d="M5.36364 11.6666C4.34091 11.6666 3.29545 11.2916 2.68182 10.8749C2.06818 10.4583 1.88636 9.77072 1 9.33325" stroke="white" stroke-width="2" stroke-linecap="round" stroke-linejoin="round"/>
</svg>
