<svg width="14" height="14" viewBox="0 0 14 14" fill="none" xmlns="http://www.w3.org/2000/svg">
<path d="M5.79297 7.60401C6.05211 7.95079 6.38272 8.23773 6.76238 8.44537C7.14204 8.653 7.56187 8.77647 7.9934 8.80741C8.42493 8.83834 8.85805 8.77602 9.2634 8.62466C9.66875 8.47331 10.0368 8.23646 10.3427 7.93018L12.1529 6.11814C12.7025 5.54855 13.0066 4.78567 12.9997 3.99382C12.9929 3.20197 12.6756 2.4445 12.1162 1.88456C11.5568 1.32461 10.8001 1.007 10.009 1.00011C9.21795 0.993233 8.45583 1.29764 7.88681 1.84777L6.84894 2.88063" stroke="white" stroke-width="2" stroke-linecap="round" stroke-linejoin="round"/>
<path d="M8.20688 6.39593C7.94775 6.04914 7.61714 5.76221 7.23747 5.55457C6.85781 5.34694 6.43798 5.22347 6.00645 5.19253C5.57493 5.16159 5.1418 5.22392 4.73645 5.37528C4.33111 5.52663 3.96302 5.76348 3.65716 6.06976L1.84692 7.8818C1.29734 8.45139 0.99324 9.21426 1.00011 10.0061C1.00699 10.798 1.32429 11.5554 1.88368 12.1154C2.44306 12.6753 3.19978 12.9929 3.99084 12.9998C4.78191 13.0067 5.54402 12.7023 6.11305 12.1522L7.14488 11.1193" stroke="white" stroke-width="2" stroke-linecap="round" stroke-linejoin="round"/>
</svg>
