<svg width="32" height="32" viewBox="0 0 32 32" fill="none" xmlns="http://www.w3.org/2000/svg">
<path d="M4 0C1.784 0 0 1.784 0 4V28C0 30.216 1.784 32 4 32H28C30.216 32 32 30.216 32 28V4C32 1.784 30.216 0 28 0H4ZM13.1773 8.33333C14.0173 8.33333 14.5173 8.73333 14.6773 9.53333L16.628 20.604C17.2476 19.7836 17.7569 19.0933 18.156 18.5333C18.8194 17.5786 19.3921 16.564 19.8667 15.5027C20.4071 14.3622 20.6773 13.3422 20.6773 12.4427C20.6773 11.9031 20.5271 11.4733 20.2267 11.1533C19.9467 10.8138 19.4164 10.384 18.636 9.864C19.436 8.84356 20.436 8.33333 21.636 8.33333C22.276 8.33333 22.8062 8.52356 23.2267 8.904C23.6667 9.28356 23.8862 9.84356 23.8853 10.584C23.8853 11.824 23.3653 13.3742 22.3253 15.2347C21.3058 17.0747 19.3364 19.8444 16.4173 23.544L13.448 23.752L11.1667 10.9147H8.16667V9.65333C8.96667 9.39289 9.90667 9.11289 10.9867 8.81333C12.0667 8.49333 12.7969 8.33333 13.1773 8.33333Z" fill="#393939"/>
</svg>
